<svg width="64" height="64" viewBox="0 0 64 64" fill="none" xmlns="http://www.w3.org/2000/svg">
<path d="M61.5464 44.1952L44.66 27.1851L46.5341 17.9541C47.0177 18.1429 47.5319 18.2416 48.0509 18.2453H48.0637C50.4483 18.2735 52.4041 16.3633 52.4324 13.9788C52.4607 11.5943 50.5504 9.6384 48.1659 9.61013C45.7813 9.582 43.8255 11.4921 43.7972 13.8767C43.7912 14.3869 43.8756 14.8941 44.0467 15.3749L34.1267 16.5856L17.9453 0.32C17.7468 0.117467 17.4759 0.00226667 17.1923 0C16.9123 0.00146667 16.6441 0.112933 16.4456 0.3104L13.4205 3.3184C13.0041 3.73493 13.0041 4.41013 13.4205 4.82667L15.0483 6.47787C8.74214 18.0737 10.7904 32.4335 20.0872 41.8037C20.1725 41.8853 20.2715 41.9513 20.3795 41.9989C20.3123 42.3599 20.2772 42.7261 20.2749 43.0933V55.4667H7.47494C4.53094 55.4701 2.14507 57.856 2.1416 60.8V62.9333C2.1416 63.5224 2.6192 64 3.20827 64H52.2749C52.864 64 53.3416 63.5224 53.3416 62.9333V60.8C53.3381 57.856 50.9523 55.4701 48.0083 55.4667H35.2083V49.9829C37.2135 50.4035 39.2565 50.6179 41.3053 50.6229C46.2216 50.6176 51.0596 49.392 55.3853 47.056L57.0216 48.7019C57.2201 48.9044 57.4911 49.0196 57.7747 49.0219C58.0547 49.0204 58.3228 48.9089 58.5213 48.7115L61.5464 45.7035C61.9628 45.2869 61.9628 44.6117 61.5464 44.1952ZM46.5597 12.4661C47.3951 11.6352 48.7459 11.6389 49.5767 12.4743C50.4076 13.3096 50.4039 14.6604 49.5685 15.4912C49.1687 15.8889 48.6276 16.1121 48.0636 16.112H48.0572C46.8791 16.1059 45.9288 15.1459 45.9349 13.9676C45.9379 13.4036 46.164 12.8639 46.5639 12.4661H46.5597ZM44.0488 19.4752L42.852 25.3664L40.5011 23.0016L44.0488 19.4752ZM42.8371 17.6715L38.9971 21.4891L36.0264 18.5024L42.8371 17.6715ZM48.0083 57.6C49.7756 57.6 51.2083 59.0327 51.2083 60.8V61.8667H4.27494V60.8C4.27494 59.0327 5.7076 57.6 7.47494 57.6H48.0083ZM33.0749 53.3333V55.4667H22.4083V53.3333H33.0749ZM22.4083 51.2V43.0933C22.4083 40.5056 24.8008 38.4 27.7416 38.4C30.6824 38.4 33.0749 40.5056 33.0749 43.0933V51.2H22.4083ZM35.2083 47.808V43.0933C35.2083 39.3291 31.8589 36.2667 27.7416 36.2667C25.0795 36.2259 22.5901 37.5809 21.1795 39.8389C13.064 31.2913 11.2365 18.5485 16.6223 8.06467L53.8259 45.4816C48.0811 48.404 41.4956 49.2268 35.2083 47.808ZM57.7864 46.4405L56.2835 44.9291L17.1816 5.59147L15.6723 4.07893L17.1816 2.57493L33.0515 18.5344C33.0589 18.5344 33.0632 18.5483 33.0707 18.5536L59.3 44.9365L57.7864 46.4405Z" fill="#2E2F42"/>
<path d="M27.751 40.5333H27.7414C25.9741 40.5306 24.5393 41.9612 24.5366 43.7285C24.534 45.4958 25.9645 46.9306 27.7318 46.9333H27.7414C29.5088 46.936 30.9436 45.5054 30.9462 43.7381C30.9489 41.9708 29.5184 40.536 27.751 40.5333ZM28.4977 44.4896C28.2969 44.6893 28.0248 44.801 27.7414 44.8C27.1524 44.7969 26.6773 44.3169 26.6804 43.7278C26.6818 43.4458 26.7949 43.176 26.9948 42.977C27.1933 42.7796 27.4614 42.6681 27.7414 42.6666C28.3305 42.6697 28.8056 43.1497 28.8025 43.7388C28.801 44.0208 28.688 44.2906 28.4881 44.4896H28.4977Z" fill="#4D5AE5"/>
</svg>
