<svg width="104" height="56" viewBox="0 0 104 56" fill="none" xmlns="http://www.w3.org/2000/svg">
<path d="M26.7919 44.373C27.0374 44.6465 27.1681 44.9891 27.1613 45.3407C27.1738 45.57 27.1288 45.7989 27.0298 46.0105C26.9307 46.2221 26.78 46.4109 26.5889 46.563C26.112 46.8872 25.5213 47.0457 24.925 47.0093H22V40.8769H24.8651C25.4307 40.8431 25.9918 40.9871 26.4525 41.2844C26.6375 41.4238 26.784 41.6 26.8805 41.7991C26.9769 41.9982 27.0206 42.2148 27.0082 42.4317C27.025 42.77 26.907 43.1026 26.6754 43.3694C26.4531 43.6131 26.1459 43.782 25.8036 43.8488C26.1916 43.9125 26.5419 44.0983 26.7919 44.373ZM23.361 43.4473H24.5856C24.8639 43.4659 25.1404 43.3935 25.3643 43.2436C25.4562 43.1686 25.5278 43.0755 25.5734 42.9716C25.619 42.8677 25.6374 42.7558 25.6272 42.6445C25.6358 42.5335 25.617 42.4222 25.5722 42.3186C25.5273 42.215 25.4574 42.1217 25.3676 42.0453C25.137 41.8911 24.852 41.8177 24.5657 41.8386H23.361V43.4473ZM25.4841 45.799C25.5824 45.7222 25.6596 45.6261 25.7099 45.518C25.7601 45.4099 25.7819 45.2928 25.7736 45.1759C25.7811 45.0576 25.7583 44.9394 25.7069 44.8303C25.6556 44.7212 25.5771 44.6242 25.4774 44.5468C25.2379 44.3869 24.9432 44.3084 24.6455 44.3251H23.361V46.0117H24.6622C24.955 46.0269 25.2449 45.9519 25.4841 45.799Z" fill="#8E8F99"/>
<path d="M32.6489 47.0093L31.055 44.6127H30.456V47.0093H29.085V40.8769H31.6806C32.3348 40.8358 32.9816 41.0224 33.4875 41.3982C33.8503 41.731 34.0692 42.1696 34.1046 42.6348C34.14 43.1001 33.9896 43.5614 33.6805 43.9357C33.3603 44.2659 32.9228 44.4861 32.4426 44.5588L34.1397 47.0093H32.6489ZM30.456 43.7769H31.5774C32.3561 43.7769 32.7454 43.4673 32.7454 42.8482C32.7534 42.7217 32.732 42.5952 32.6828 42.4766C32.6335 42.358 32.5574 42.2499 32.4592 42.1591C32.2132 41.9749 31.8963 41.8855 31.5774 41.9105H30.4427L30.456 43.7769Z" fill="#8E8F99"/>
<path d="M40.1424 45.775H37.4103L36.9278 47.0093H35.4902L37.9993 40.9458H39.5534L42.0525 47.0093H40.6149L40.1424 45.775ZM39.7763 44.8463L38.778 42.258L37.7797 44.8463H39.7763Z" fill="#8E8F99"/>
<path d="M49.5232 47.0093H48.1621L45.1106 42.8391V47.0093H43.7529V40.8769H45.1106L48.1621 45.071V40.8769H49.5232V47.0093Z" fill="#8E8F99"/>
<path d="M57.2904 45.5414C57.009 46.0044 56.5802 46.381 56.0591 46.6229C55.4667 46.8923 54.8092 47.0251 54.1457 47.0093H51.7231V40.8769H54.1457C54.8081 40.8614 55.4647 40.9909 56.0591 41.2544C56.5801 41.4908 57.0094 41.8636 57.2904 42.3239C57.5705 42.8227 57.7165 43.3737 57.7165 43.9326C57.7165 44.4916 57.5705 45.0426 57.2904 45.5414ZM55.733 45.3946C56.1215 44.9872 56.335 44.4681 56.335 43.9311C56.335 43.3942 56.1215 42.8751 55.733 42.4677C55.2635 42.0987 54.6513 41.9114 54.0292 41.9464H53.0842V45.9159H54.0292C54.6513 45.9509 55.2635 45.7636 55.733 45.3946Z" fill="#8E8F99"/>
<path d="M40.9946 6.76666C40.9946 6.76666 58.5616 12.7373 58.1889 21.3772V35.9907C58.1889 35.9907 40.6352 30.0171 41.0013 21.3772L40.9946 6.76666Z" fill="#8E8F99"/>
<path d="M73.8389 32.5694C77.1565 30.5139 80.9941 29.2408 85 28.8666V24.292C80.3842 25.8935 76.4686 28.7975 73.8389 32.5694Z" fill="#8E8F99"/>
<path d="M71.8453 33.9477C74.5608 29.0252 79.2684 25.2268 84.9998 23.3336V10.152C84.9998 10.152 59.9821 18.6571 60.5112 30.9609V51.7667C60.5112 51.7667 61.626 51.3863 63.3797 50.6733C63.3797 50.0082 63.3797 49.3371 63.4595 48.6631C63.9773 42.9511 66.9936 37.658 71.8453 33.9477Z" fill="#8E8F99"/>
<path d="M69.4665 41.6768C69.5979 40.2339 69.8911 38.8066 70.3416 37.4168C67.3206 40.621 65.4912 44.5971 65.1105 48.7859C65.0739 49.1813 65.0539 49.5768 65.0439 49.9842C66.4649 49.3701 68.1187 48.6031 69.8558 47.7014C69.4125 45.7196 69.2814 43.6915 69.4665 41.6768Z" fill="#8E8F99"/>
<path d="M70.4612 41.7517C70.2947 43.5745 70.3988 45.4091 70.7707 47.2071C77.6058 43.5253 85.2861 37.8362 84.99 30.9609V30.3617C80.1066 30.8536 75.5377 32.7755 71.9853 35.832C71.1536 37.7262 70.6399 39.7213 70.4612 41.7517Z" fill="#8E8F99"/>
</svg>
