<svg width="104" height="56" viewBox="0 0 104 56" fill="none" xmlns="http://www.w3.org/2000/svg">
<path d="M36.8098 49.2233C36.8259 49.2236 36.8418 49.2268 36.8565 49.2324C36.8712 49.2381 36.8844 49.2462 36.8954 49.2563L37.1162 49.4639C36.9448 49.6319 36.733 49.7662 36.4951 49.8578C36.2167 49.9577 35.9165 50.0059 35.6146 49.9993C35.3309 50.0043 35.049 49.9593 34.7865 49.8672C34.5497 49.7826 34.337 49.6555 34.1626 49.4945C33.9848 49.3275 33.8477 49.1319 33.7596 48.919C33.6632 48.6817 33.6155 48.4319 33.6189 48.1807C33.6149 47.9279 33.6664 47.6766 33.7707 47.44C33.8671 47.2258 34.0126 47.0301 34.1985 46.8645C34.387 46.702 34.6125 46.5744 34.861 46.4894C35.1329 46.3994 35.4224 46.3545 35.714 46.3573C35.9848 46.3517 36.2542 46.3926 36.5062 46.4776C36.7248 46.5587 36.9255 46.6712 37.0997 46.8102L36.9147 47.0319C36.9019 47.0475 36.8861 47.0611 36.8678 47.072C36.846 47.0848 36.8196 47.0907 36.7933 47.0886C36.7646 47.0869 36.737 47.0787 36.7132 47.065L36.6138 47.006L36.4758 46.9305C36.4162 46.9025 36.3544 46.8781 36.2909 46.8574C36.209 46.8324 36.125 46.8126 36.0397 46.7984C35.9314 46.7814 35.8213 46.7735 35.7112 46.7748C35.5012 46.7726 35.2929 46.8063 35.0984 46.8739C34.917 46.9365 34.7533 47.0314 34.6181 47.1522C34.4805 47.2807 34.3744 47.4315 34.3062 47.5957C34.2284 47.7835 34.1901 47.9815 34.193 48.1807C34.1897 48.3829 34.228 48.5841 34.3062 48.7751C34.3735 48.9378 34.4776 49.0877 34.6126 49.2162C34.739 49.336 34.8957 49.4295 35.0708 49.4898C35.251 49.5536 35.4444 49.5857 35.6394 49.5842C35.7521 49.5856 35.8647 49.5793 35.9762 49.5653C36.1582 49.5463 36.3328 49.4923 36.4869 49.4072C36.5641 49.3637 36.6371 49.3148 36.7049 49.261C36.7333 49.2379 36.7706 49.2244 36.8098 49.2233Z" fill="#8E8F99"/>
<path d="M43.1862 48.1803C43.1896 48.4305 43.1391 48.6792 43.0371 48.9138C42.9472 49.1266 42.8055 49.3207 42.6213 49.4834C42.4372 49.646 42.2148 49.7734 41.9689 49.8573C41.4285 50.0334 40.8311 50.0334 40.2906 49.8573C40.0462 49.7721 39.8253 49.6444 39.6419 49.4822C39.4579 49.3167 39.3152 49.1209 39.2224 48.9067C39.0235 48.4317 39.0235 47.9124 39.2224 47.4373C39.3165 47.2231 39.4591 47.0267 39.6419 46.8595C39.8269 46.7024 40.0477 46.5796 40.2906 46.4986C40.8304 46.3193 41.4291 46.3193 41.9689 46.4986C42.2141 46.5837 42.4359 46.7114 42.6203 46.8736C42.802 47.0376 42.9437 47.2308 43.0371 47.442C43.1394 47.6782 43.1899 47.9285 43.1862 48.1803ZM42.6065 48.1803C42.6109 47.9801 42.5754 47.7807 42.5016 47.5906C42.4398 47.4278 42.3392 47.2777 42.2063 47.1496C42.0769 47.0284 41.9175 46.9333 41.7398 46.8713C41.3471 46.7423 40.9124 46.7423 40.5197 46.8713C40.342 46.9333 40.1827 47.0284 40.0532 47.1496C39.9184 47.2769 39.8168 47.4272 39.7551 47.5906C39.6147 47.9746 39.6147 48.386 39.7551 48.7699C39.8174 48.9331 39.919 49.0833 40.0532 49.211C40.1828 49.3315 40.3422 49.4257 40.5197 49.487C40.9131 49.6126 41.3464 49.6126 41.7398 49.487C41.9173 49.4257 42.0767 49.3315 42.2063 49.211C42.3386 49.0826 42.4391 48.9325 42.5016 48.7699C42.5757 48.5799 42.6112 48.3805 42.6065 48.1803Z" fill="#8E8F99"/>
<path d="M47.5363 48.7987L47.5942 48.9307C47.6163 48.8836 47.6356 48.8411 47.6577 48.7987C47.6788 48.7543 47.7027 48.711 47.7295 48.669L49.14 46.4781C49.1676 46.4403 49.1925 46.4168 49.2201 46.4097C49.2576 46.3999 49.2969 46.3959 49.336 46.3979H49.7528V49.9613H49.2587V47.3412C49.2587 47.3082 49.2587 47.2705 49.2587 47.2304C49.2561 47.1895 49.2561 47.1486 49.2587 47.1077L47.8399 49.3293C47.8219 49.3626 47.7931 49.3907 47.7569 49.4104C47.7206 49.43 47.6786 49.4403 47.6356 49.4401H47.5556C47.5126 49.4406 47.4704 49.4304 47.4341 49.4107C47.3978 49.391 47.3691 49.3627 47.3513 49.3293L45.8911 47.0936C45.8911 47.136 45.8911 47.1785 45.8911 47.2209C45.8911 47.2634 45.8911 47.3011 45.8911 47.3341V49.9542H45.4136V46.3979H45.8304C45.8695 46.3959 45.9088 46.3999 45.9463 46.4097C45.9805 46.4242 46.0078 46.4483 46.0236 46.4781L47.4645 48.6713C47.4928 48.7118 47.5168 48.7545 47.5363 48.7987Z" fill="#8E8F99"/>
<path d="M52.8445 48.6216V49.9564H52.2925V46.3978H53.5236C53.756 46.3939 53.9877 46.4202 54.2109 46.4756C54.3896 46.5188 54.5553 46.5945 54.6967 46.6973C54.8194 46.7936 54.9139 46.9131 54.9728 47.0463C55.0379 47.1915 55.0698 47.346 55.0666 47.5014C55.0691 47.6575 55.0343 47.8123 54.9645 47.9566C54.8981 48.0931 54.7962 48.2149 54.6664 48.3127C54.5247 48.4198 54.3583 48.5001 54.1778 48.5485C53.9629 48.6072 53.7381 48.6351 53.5126 48.631L52.8445 48.6216ZM52.8445 48.2396H53.5126C53.6577 48.2412 53.8021 48.2229 53.9404 48.1853C54.0545 48.1525 54.1596 48.1004 54.2496 48.032C54.3325 47.9668 54.3967 47.8861 54.4373 47.7962C54.4825 47.7011 54.505 47.5993 54.5035 47.4967C54.5099 47.3978 54.491 47.2989 54.4481 47.2068C54.4052 47.1148 54.3394 47.0318 54.2551 46.9637C54.0442 46.8231 53.7793 46.7549 53.5126 46.7727H52.8445V48.2396Z" fill="#8E8F99"/>
<path d="M60.2646 49.9612H59.8285C59.7847 49.9626 59.7418 49.9509 59.707 49.9282C59.6757 49.906 59.6511 49.8777 59.6352 49.8456L59.2598 48.9847H57.3745L56.9853 49.8456C56.971 49.8771 56.9472 49.9048 56.9163 49.9258C56.8812 49.95 56.8371 49.9625 56.7921 49.9612H56.356L58.0122 46.3974H58.5863L60.2646 49.9612ZM57.5319 48.638H59.0887L58.4317 47.1875C58.3815 47.0784 58.34 46.9665 58.3075 46.8526L58.244 47.0389C58.2247 47.0955 58.2026 47.1474 58.1833 47.1899L57.5319 48.638Z" fill="#8E8F99"/>
<path d="M62.6498 46.414C62.6828 46.4294 62.7111 46.4512 62.7326 46.4777L65.1479 49.164C65.1479 49.1216 65.1479 49.0791 65.1479 49.039C65.1479 48.9989 65.1479 48.9588 65.1479 48.9211V46.3975H65.642V49.9612H65.366C65.3268 49.9622 65.2879 49.9549 65.2528 49.94C65.2187 49.923 65.1887 49.9006 65.1645 49.874L62.7519 47.1899C62.7546 47.2308 62.7546 47.2717 62.7519 47.3126C62.7519 47.3527 62.7519 47.3881 62.7519 47.4211V49.9612H62.2578V46.3975H62.5504C62.5846 46.3967 62.6185 46.4023 62.6498 46.414Z" fill="#8E8F99"/>
<path d="M69.7104 48.5438V49.9589H69.1583V48.5438L67.6318 46.3975H68.1259C68.1685 46.3954 68.2106 46.4062 68.2446 46.4282C68.2747 46.4511 68.2999 46.4782 68.3192 46.5084L69.2743 47.8928C69.3129 47.9518 69.346 48.006 69.3736 48.0579C69.4012 48.1098 69.4233 48.1593 69.4426 48.2089L69.5144 48.0556C69.5412 47.9995 69.5726 47.9451 69.6083 47.8928L70.5495 46.4989C70.5693 46.4711 70.5935 46.4457 70.6213 46.4235C70.6541 46.399 70.6966 46.3864 70.74 46.3881H71.2396L69.7104 48.5438Z" fill="#8E8F99"/>
<path d="M47.2632 40.417C47.5033 40.4429 47.7462 40.4642 47.9919 40.483C51.7165 39.0595 54.8673 36.7295 57.0506 33.7844C59.2338 30.8393 60.3527 27.4097 60.2672 23.9243L56.1626 20.4172C56.9972 24.1281 56.6068 27.9642 55.0351 31.4963C53.4634 35.0284 50.7724 38.1171 47.2632 40.417Z" fill="#8E8F99"/>
<path d="M45.7974 40.2538L45.9078 40.2727C49.6577 37.981 52.5167 34.7808 54.115 31.086C55.7133 27.3912 55.9775 23.3716 54.8734 19.5471L49.027 14.5521C51.3917 18.6579 52.3435 23.253 51.7718 27.8028C51.2001 32.3527 49.1283 36.6704 45.7974 40.2538Z" fill="#8E8F99"/>
<path d="M65.6251 28.0424C64.6318 31.8721 62.2195 35.3259 58.7463 37.8912C57.7319 38.6445 56.6378 39.3156 55.478 39.8958C58.3062 39.1856 60.9057 37.9299 63.0761 36.2256C65.2465 34.5213 66.9298 32.4139 67.9962 30.0659L65.6251 28.0424Z" fill="#8E8F99"/>
<path d="M64.6947 27.4784L61.3188 24.5941C61.2543 27.8826 60.16 31.0963 58.1499 33.9013C56.1397 36.7063 53.287 39 49.8882 40.5442H49.9047C50.6622 40.544 51.4189 40.5054 52.171 40.4287C55.3474 39.321 58.1534 37.5587 60.3386 35.299C62.5239 33.0393 64.0204 30.3525 64.6947 27.4784Z" fill="#8E8F99"/>
<path d="M46.2861 12.4457L42.2587 9C38.6584 10.1887 35.562 12.2784 33.3747 14.9955C31.1875 17.7127 30.0112 20.9308 30 24.2285V24.2285C30.0135 27.8725 31.449 31.4085 34.0793 34.2769C36.7096 37.1454 40.3845 39.1824 44.5222 40.0656C48.216 36.2205 50.3786 31.4693 50.6958 26.5023C51.013 21.5353 49.4683 16.6113 46.2861 12.4457Z" fill="#8E8F99"/>
<path d="M73.9999 26.9478C73.9853 22.6245 71.9687 18.4818 68.3907 15.4247C64.8126 12.3676 59.9639 10.6447 54.9038 10.6322C52.5656 10.6301 50.2472 10.9988 48.0664 11.7194L72.7246 32.7873C73.5689 30.925 74.0013 28.945 73.9999 26.9478Z" fill="#8E8F99"/>
</svg>
