<svg width="16" height="16" viewBox="0 0 16 16" fill="none" xmlns="http://www.w3.org/2000/svg">
<g clip-path="url(#clip0_309_385)">
<path d="M15.9843 4.70395C15.9468 3.85381 15.8093 3.26935 15.6124 2.7629C15.4092 2.22532 15.0967 1.74402 14.6872 1.34392C14.2871 0.937592 13.8026 0.621856 13.2713 0.421866C12.7619 0.224928 12.1805 0.08745 11.3303 0.049967C10.4738 0.00930969 10.2019 -9.15527e-05 8.02963 -9.15527e-05C5.85733 -9.15527e-05 5.58543 0.00930969 4.73212 0.0467926C3.88197 0.0842755 3.29751 0.221876 2.79119 0.418691C2.25348 0.621856 1.77219 0.934417 1.37209 1.34392C0.965758 1.74402 0.650145 2.22849 0.450033 2.75985C0.253096 3.26935 0.115618 3.85064 0.0781347 4.70078C0.0374774 5.55727 0.0280762 5.82917 0.0280762 8.00147C0.0280762 10.1738 0.0374774 10.4457 0.0749603 11.299C0.112443 12.1491 0.250043 12.7336 0.446981 13.24C0.650145 13.7776 0.965758 14.2589 1.37209 14.659C1.77219 15.0654 2.25666 15.3811 2.78801 15.5811C3.29751 15.778 3.8788 15.9155 4.72906 15.953C5.58226 15.9906 5.85428 15.9999 8.02658 15.9999C10.1989 15.9999 10.4708 15.9906 11.3241 15.953C12.1742 15.9155 12.7587 15.778 13.265 15.5811C14.3403 15.1653 15.1904 14.3152 15.6062 13.24C15.803 12.7305 15.9406 12.1491 15.9781 11.299C16.0156 10.4457 16.025 10.1738 16.025 8.00147C16.025 5.82917 16.0218 5.55727 15.9843 4.70395ZM14.5435 11.2365C14.509 12.0179 14.3778 12.4398 14.2684 12.7211C13.9995 13.4182 13.4463 13.9714 12.7493 14.2402C12.468 14.3496 12.043 14.4809 11.2646 14.5152C10.4207 14.5528 10.1676 14.5621 8.03281 14.5621C5.89799 14.5621 5.64172 14.5528 4.80085 14.5152C4.01945 14.4809 3.5975 14.3496 3.31619 14.2402C2.96932 14.112 2.65359 13.9089 2.39731 13.6432C2.13163 13.3837 1.92847 13.0712 1.80027 12.7243C1.69087 12.443 1.55962 12.0179 1.52532 11.2397C1.48771 10.3957 1.47843 10.1425 1.47843 8.0077C1.47843 5.87288 1.48771 5.61661 1.52532 4.77587C1.55962 3.99446 1.69087 3.57251 1.80027 3.2912C1.92847 2.94421 2.13163 2.6286 2.40049 2.3722C2.65981 2.10652 2.97237 1.90336 3.31937 1.77528C3.60067 1.66588 4.0258 1.53463 4.80403 1.5002C5.64794 1.46272 5.90117 1.45332 8.03586 1.45332C10.1738 1.45332 10.4269 1.46272 11.2678 1.5002C12.0492 1.53463 12.4712 1.66588 12.7525 1.77528C13.0993 1.90336 13.4151 2.10652 13.6714 2.3722C13.937 2.63165 14.1402 2.94421 14.2684 3.2912C14.3778 3.57251 14.509 3.99752 14.5435 4.77587C14.581 5.61978 14.5904 5.87288 14.5904 8.0077C14.5904 10.1425 14.581 10.3926 14.5435 11.2365Z" fill="#F4F4FD"/>
<path d="M8.02961 3.89127C5.76049 3.89127 3.91943 5.7322 3.91943 8.00144C3.91943 10.2707 5.76049 12.1116 8.02961 12.1116C10.2989 12.1116 12.1398 10.2707 12.1398 8.00144C12.1398 5.7322 10.2989 3.89127 8.02961 3.89127ZM8.02961 10.6676C6.55752 10.6676 5.36344 9.47365 5.36344 8.00144C5.36344 6.52923 6.55752 5.33527 8.02961 5.33527C9.50182 5.33527 10.6958 6.52923 10.6958 8.00144C10.6958 9.47365 9.50182 10.6676 8.02961 10.6676Z" fill="#F4F4FD"/>
<path d="M13.262 3.72879C13.262 4.25868 12.8323 4.68833 12.3023 4.68833C11.7724 4.68833 11.3428 4.25868 11.3428 3.72879C11.3428 3.19878 11.7724 2.76925 12.3023 2.76925C12.8323 2.76925 13.262 3.19878 13.262 3.72879Z" fill="#F4F4FD"/>
</g>
<defs>
<clipPath id="clip0_309_385">
<rect width="16" height="16" fill="white"/>
</clipPath>
</defs>
</svg>
