<svg width="16" height="16" viewBox="0 0 16 16" fill="none" xmlns="http://www.w3.org/2000/svg">
<g clip-path="url(#clip0_309_401)">
<path d="M15.9959 15.9999V15.9993H15.9999V10.1313C15.9999 7.26061 15.3819 5.04928 12.0259 5.04928C10.4125 5.04928 9.32985 5.93461 8.88785 6.77395H8.84118V5.31728H5.65918V15.9993H8.97252V10.7099C8.97252 9.31728 9.23652 7.97061 10.9612 7.97061C12.6605 7.97061 12.6859 9.55994 12.6859 10.7993V15.9999H15.9959Z" fill="#F4F4FD"/>
<path d="M0.26416 5.31788H3.58149V15.9999H0.26416V5.31788Z" fill="#F4F4FD"/>
<path d="M1.92133 -9.15527e-05C0.860667 -9.15527e-05 0 0.860575 0 1.92124C0 2.98191 0.860667 3.86058 1.92133 3.86058C2.982 3.86058 3.84267 2.98191 3.84267 1.92124C3.842 0.860575 2.98133 -9.15527e-05 1.92133 -9.15527e-05V-9.15527e-05Z" fill="#F4F4FD"/>
</g>
<defs>
<clipPath id="clip0_309_401">
<rect width="16" height="16" fill="white"/>
</clipPath>
</defs>
</svg>
