<svg width="104" height="56" viewBox="0 0 104 56" fill="none" xmlns="http://www.w3.org/2000/svg">
<path d="M53.5293 27.4432C53.0853 26.8523 52.8729 26.1541 52.9233 25.4512V22.5631C52.9233 21.6778 53.1242 21.005 53.5259 20.5447C53.9277 20.0844 54.6177 19.8552 55.596 19.8572C56.5153 19.8572 57.1679 20.0531 57.5537 20.4448C57.9746 20.9446 58.1794 21.5558 58.1325 22.1724V22.851H56.488V22.1635C56.4939 21.9385 56.4779 21.7135 56.4404 21.4907C56.4167 21.3384 56.3339 21.1976 56.2055 21.0912C56.0366 20.9765 55.8239 20.9209 55.6096 20.9354C55.3843 20.9209 55.1609 20.9796 54.9832 21.1C54.8399 21.2179 54.7444 21.3724 54.7108 21.5407C54.6636 21.7764 54.642 22.0154 54.6461 22.2546V25.7597C54.6202 26.0978 54.6927 26.4362 54.8572 26.7439C54.939 26.848 55.0526 26.9306 55.1854 26.9824C55.3182 27.0343 55.465 27.0534 55.6096 27.0377C55.8203 27.0527 56.0293 26.9957 56.1918 26.8791C56.3258 26.7643 56.412 26.6145 56.437 26.4531C56.4754 26.2205 56.4925 25.9857 56.488 25.7509V25.0399H58.1325V25.6892C58.1787 26.3318 57.9789 26.9698 57.5639 27.5049C57.186 27.9338 56.5425 28.1483 55.596 28.1483C54.6495 28.1483 53.9345 27.9191 53.5293 27.4432Z" fill="#8E8F99"/>
<path d="M60.3765 27.4726C59.9611 27.023 59.7534 26.3679 59.7534 25.5011V22.4632C59.7534 21.6053 59.9611 20.956 60.3765 20.5153C60.7918 20.0746 61.4864 19.8552 62.4601 19.8572C63.427 19.8572 64.1182 20.0766 64.5336 20.5153C64.9489 20.956 65.16 21.6053 65.16 22.4632V25.5011C65.16 26.359 64.9489 27.0172 64.5267 27.4696C64.1046 27.9221 63.4168 28.1483 62.4601 28.1483C61.5034 28.1483 60.7952 27.9191 60.3765 27.4726ZM63.2262 26.7439C63.3749 26.4623 63.4427 26.1539 63.4236 25.8449V22.1253C63.4427 21.8223 63.3761 21.5198 63.2296 21.2439C63.1461 21.1376 63.0298 21.0537 62.8937 21.0018C62.7576 20.9498 62.6074 20.9319 62.4601 20.9501C62.3124 20.9324 62.1618 20.9505 62.0254 21.0023C61.8889 21.0542 61.7718 21.1379 61.6873 21.2439C61.5375 21.519 61.4697 21.8219 61.4898 22.1253V25.8625C61.4691 26.1716 61.5369 26.4804 61.6873 26.7615C61.7831 26.8563 61.9014 26.9323 62.0341 26.9843C62.1668 27.0364 62.3109 27.0633 62.4567 27.0633C62.6025 27.0633 62.7466 27.0364 62.8793 26.9843C63.012 26.9323 63.1303 26.8563 63.2262 26.7615V26.7439Z" fill="#8E8F99"/>
<path d="M67.1376 19.946H68.908L70.2393 25.5511L71.6011 19.946H73.3239L73.4976 28.0364H72.2242L72.088 22.4136L70.7738 28.0364H69.7524L68.3905 22.3931L68.2645 28.0364H66.9775L67.1376 19.946Z" fill="#8E8F99"/>
<path d="M75.4829 19.946H78.2406C79.8295 19.946 80.6239 20.7117 80.6239 22.2432C80.6239 23.7101 79.7875 24.4426 78.1147 24.4406H77.175V28.0364H75.4727L75.4829 19.946ZM77.8389 23.4036C78.0071 23.422 78.1779 23.4087 78.3396 23.3646C78.5012 23.3205 78.6499 23.2466 78.7752 23.148C78.9704 22.8748 79.0565 22.5539 79.0203 22.2344C79.0292 21.9876 79.0018 21.7408 78.9386 21.5C78.9143 21.4196 78.8717 21.3441 78.8133 21.278C78.7548 21.2119 78.6817 21.1566 78.5981 21.1152C78.3618 21.0173 78.1006 20.9729 77.8389 20.9859H77.1784V23.4036H77.8389Z" fill="#8E8F99"/>
<path d="M83.0786 19.946H84.9069L86.7829 28.0364H85.1963L84.8252 26.1709H83.1944L82.813 28.0364H81.2026L83.0786 19.946ZM84.6413 25.2338L84.0047 21.8378L83.368 25.2338H84.6413Z" fill="#8E8F99"/>
<path d="M88.2983 19.946H89.49L91.7711 24.5611V19.946H93.1841V28.0364H92.0503L89.7555 23.2185V28.0364H88.2949L88.2983 19.946Z" fill="#8E8F99"/>
<path d="M96.4931 24.9515L94.5967 19.9572H96.1935L97.3511 23.1653L98.4372 19.9572H99.9999L98.1273 24.9515V28.0363H96.4931V24.9515Z" fill="#8E8F99"/>
<path d="M56.1578 31.5735V31.9966H54.7687V35.2841H54.1865V31.9966H52.7905V31.5735H56.1578Z" fill="#8E8F99"/>
<path d="M60.5122 35.2844H60.0628C60.0171 35.2869 59.9721 35.2743 59.9368 35.2492C59.9028 35.2276 59.8768 35.198 59.8619 35.164L59.4602 34.2826H57.5331L57.1313 35.164C57.1199 35.2008 57.0989 35.235 57.07 35.2639C57.0344 35.2885 56.9896 35.301 56.9441 35.2991H56.4946L58.197 31.5887H58.7894L60.5122 35.2844ZM57.6931 33.9066H59.3001L58.6192 32.3966C58.569 32.2824 58.5269 32.1657 58.4932 32.047C58.4694 32.1175 58.449 32.1851 58.4285 32.2438L58.3672 32.3995L57.6931 33.9066Z" fill="#8E8F99"/>
<path d="M63.4472 34.9201C63.5538 34.9249 63.6606 34.9249 63.7672 34.9201C63.8593 34.9119 63.9504 34.8971 64.0396 34.876C64.123 34.8584 64.2049 34.8358 64.2848 34.8084C64.3597 34.782 64.4346 34.7497 64.5129 34.7173V33.8829H63.8319C63.8151 33.8837 63.7982 33.8815 63.7824 33.8765C63.7666 33.8714 63.7522 33.8636 63.74 33.8535C63.7288 33.8452 63.72 33.8348 63.7141 33.8231C63.7082 33.8114 63.7054 33.7987 63.706 33.7859V33.5009H65.027V34.923C64.9192 34.9896 64.8053 35.0485 64.6865 35.0993C64.5651 35.151 64.4386 35.1933 64.3086 35.2256C64.1694 35.261 64.027 35.2865 63.883 35.302C63.7179 35.3178 63.552 35.3257 63.3859 35.3255C63.0923 35.3277 62.8009 35.2808 62.5279 35.1875C62.273 35.099 62.0414 34.9671 61.847 34.7996C61.6574 34.6304 61.5082 34.4308 61.4078 34.212C61.3005 33.966 61.2474 33.705 61.2512 33.4422C61.2476 33.1778 61.2995 32.915 61.4044 32.6665C61.5023 32.4466 61.6518 32.2465 61.8436 32.0789C62.0379 31.9119 62.2696 31.781 62.5245 31.694C62.8161 31.5993 63.1255 31.5525 63.437 31.5559C63.5955 31.5557 63.7537 31.5665 63.9102 31.5882C64.0486 31.6076 64.1844 31.6391 64.3154 31.6822C64.4345 31.7208 64.5486 31.7701 64.6559 31.8291C64.7602 31.8871 64.8593 31.9519 64.9521 32.023L64.7887 32.2522C64.7759 32.2731 64.7568 32.2907 64.7334 32.3031C64.7101 32.3155 64.6833 32.3223 64.6559 32.3227C64.6182 32.3217 64.5816 32.3115 64.5503 32.2933C64.4993 32.2698 64.4448 32.2405 64.3835 32.2052C64.3111 32.166 64.2348 32.1326 64.1554 32.1053C64.0539 32.0702 63.9491 32.0427 63.8421 32.023C63.6995 32.0004 63.5547 31.9896 63.4097 31.9907C63.1851 31.9886 62.9621 32.0235 62.7526 32.0936C62.5632 32.1591 62.3924 32.2594 62.2522 32.3874C62.1111 32.5208 62.0033 32.6778 61.9355 32.8487C61.7834 33.2505 61.7834 33.6838 61.9355 34.0856C62.01 34.2601 62.126 34.4193 62.276 34.5528C62.4156 34.6801 62.5851 34.7803 62.7731 34.8466C62.9896 34.9108 63.219 34.9358 63.4472 34.9201Z" fill="#8E8F99"/>
<path d="M68.8743 34.8611H70.7333V35.2841H68.3057V31.5735H68.8879L68.8743 34.8611Z" fill="#8E8F99"/>
<path d="M72.6672 35.2841H72.085V31.5735H72.6672V35.2841Z" fill="#8E8F99"/>
<path d="M74.8324 31.5912C74.867 31.6082 74.8971 31.6312 74.9209 31.6588L77.4097 34.4558C77.4063 34.4118 77.4063 34.3676 77.4097 34.3236C77.4097 34.2825 77.4097 34.2413 77.4097 34.2031V31.5589H77.917V35.2844H77.6242C77.5808 35.2874 77.5373 35.2803 77.4982 35.2638C77.4629 35.2453 77.4317 35.2214 77.4063 35.1933L74.9209 32.3992C74.9209 32.4432 74.9209 32.4844 74.9209 32.5255C74.9209 32.5666 74.9209 32.6048 74.9209 32.6401V35.2844H74.4341V31.5736H74.7371C74.7699 31.5736 74.8024 31.5796 74.8324 31.5912Z" fill="#8E8F99"/>
<path d="M82.2035 31.5735V31.9819H80.1402V33.2071H81.8119V33.6007H80.1402V34.867H82.2035V35.2754H79.541V31.5735H82.2035Z" fill="#8E8F99"/>
<path d="M21.1952 8.65865L47.047 14.9927V37.1882L21.1952 30.8571V8.65865ZM19.5371 6.76666V31.9353L48.7017 39.0832V13.9174L19.5371 6.76666Z" fill="#8E8F99"/>
<path d="M35.168 50.7666L6 43.6129V18.4468L35.168 25.5977V50.7666Z" fill="#8E8F99"/>
<path d="M20.0205 8.37365L45.5352 14.6282L34.6845 23.994L9.16636 17.7365L20.0205 8.37365ZM19.537 6.76666L6 18.4474L35.168 25.598L48.7016 13.9173L19.537 6.76666Z" fill="#8E8F99"/>
<path d="M36.8091 49.3508L48.7016 39.0862L36.8091 36.169V49.3508Z" fill="#8E8F99"/>
</svg>
