<svg width="104" height="56" viewBox="0 0 104 56" fill="none" xmlns="http://www.w3.org/2000/svg">
<path fill-rule="evenodd" clip-rule="evenodd" d="M50.1135 5.93452H49.9769C49.7669 5.92181 49.557 5.91672 49.347 5.91163H49.347H49.3268H48.8917C48.4945 5.91163 48.0897 5.92181 47.6875 5.94215C47.6572 5.93994 47.6267 5.93994 47.5964 5.94215C43.9521 6.14863 40.3816 7.05951 37.0804 8.62492L36.6478 8.83344V30.9746L37.6597 30.6313C38.5476 30.3261 39.4937 30.0515 40.4727 29.7972C43.1192 29.1178 45.8366 28.7567 48.5678 28.7216V31.6306C48.2061 31.6332 47.8545 31.6434 47.5028 31.6612H47.4193C45.3174 31.7765 43.2315 32.0967 41.1912 32.6173C38.607 33.2643 36.1142 34.2357 33.7715 35.5086V7.11189C36.2046 5.69275 38.8252 4.62687 41.5554 3.94596C43.9526 3.32705 46.4168 3.00931 48.8917 3H49.3192C49.8302 3.01271 50.3285 3.0356 50.7965 3.0712C52.0296 3.15778 53.2527 3.35263 54.452 3.65353V6.51685C53.2873 6.24551 52.103 6.06695 50.9104 5.98284C50.8862 5.98079 50.862 5.97872 50.8377 5.97666C50.591 5.95561 50.3439 5.93452 50.1135 5.93452ZM55.1527 8.86138C55.7876 8.9097 56.4453 8.93259 57.1107 8.93259C59.7124 8.92307 62.303 8.59083 64.8238 7.94339C67.4067 7.29396 69.8985 6.32178 72.2409 5.04956V32.9402C69.8065 34.3585 67.1852 35.4243 64.4545 36.1061C62.057 36.7227 59.5929 37.0395 57.1182 37.0496C55.2432 37.0647 53.3736 36.8443 51.5529 36.3935V8.32229C51.9829 8.42146 52.4256 8.51301 52.8759 8.58929C53.6146 8.7139 54.3937 8.80544 55.1527 8.86138ZM69.3469 9.07753L68.335 9.41828C67.4041 9.73106 66.4656 10.0108 65.522 10.26C62.7748 10.966 59.9513 11.3281 57.1157 11.3382C56.4555 11.3382 55.8483 11.3204 55.2614 11.2822L54.4545 11.2288V31.3178V34.0057L55.1476 34.0667C55.7901 34.1227 56.4529 34.1506 57.1208 34.1506C59.3543 34.1412 61.578 33.8533 63.7411 33.2937C65.5222 32.8469 67.2551 32.2243 68.9144 31.4348L69.3469 31.2263V9.07753Z" fill="#8E8F99"/>
<path d="M35.7373 45.2124C35.5918 45.0615 35.4164 44.943 35.2225 44.8646C35.0286 44.7862 34.8204 44.7496 34.6115 44.7572C34.3889 44.7542 34.1679 44.7957 33.9614 44.8793C33.772 44.9547 33.5999 45.068 33.4554 45.2124C33.3126 45.3572 33.2014 45.5304 33.1291 45.721C33.0498 45.9207 33.0103 46.1341 33.0127 46.3491V50.1431C33.0037 50.4104 33.0547 50.6764 33.162 50.9212C33.2516 51.1156 33.3808 51.2889 33.5415 51.4298C33.6931 51.5575 33.8711 51.6495 34.0626 51.6994C34.2471 51.7512 34.4377 51.7777 34.6292 51.7782C34.8405 51.7803 35.0497 51.7351 35.2414 51.646C35.4311 51.563 35.6029 51.4438 35.7474 51.295C35.8883 51.1476 36.0006 50.9752 36.0788 50.7864C36.1599 50.5951 36.2012 50.3892 36.2002 50.1812V49.7566H35.2085V50.0948C35.2115 50.2103 35.1917 50.3252 35.1504 50.433C35.1181 50.5137 35.0689 50.5866 35.0062 50.6466C34.9447 50.6962 34.8743 50.7334 34.7987 50.7559C34.7318 50.7782 34.6618 50.7902 34.5913 50.7915C34.5028 50.8018 34.4131 50.7885 34.3313 50.7527C34.2496 50.717 34.1787 50.6602 34.1258 50.5881C34.0323 50.4356 33.9865 50.2585 33.9943 50.0795V46.5423C33.9881 46.3462 34.0298 46.1515 34.1157 45.9753C34.1672 45.8952 34.24 45.8313 34.3259 45.7908C34.4118 45.7503 34.5072 45.7349 34.6014 45.7464C34.6869 45.7434 34.7718 45.7612 34.8489 45.7984C34.926 45.8356 34.993 45.8911 35.0441 45.96C35.1551 46.1057 35.2131 46.2852 35.2085 46.4686V46.7966H36.1901V46.4101C36.1921 46.1831 36.1509 45.9578 36.0686 45.7464C35.9954 45.5476 35.8826 45.3659 35.7373 45.2124Z" fill="#8E8F99"/>
<path d="M41.6287 45.1691C41.3125 44.9021 40.9134 44.7546 40.5004 44.7521C40.2984 44.7529 40.0981 44.7891 39.9085 44.8589C39.7159 44.9279 39.5382 45.0332 39.3848 45.1691C39.2205 45.3168 39.0894 45.498 39.0003 45.7006C38.9004 45.9323 38.8512 46.183 38.8561 46.4355V50.0744C38.8493 50.3304 38.8985 50.5847 39.0003 50.8195C39.09 51.0151 39.2213 51.1887 39.3848 51.328C39.5364 51.4688 39.7144 51.5777 39.9085 51.6485C40.0981 51.7183 40.2984 51.7544 40.5004 51.7553C40.7024 51.7549 40.9028 51.7187 41.0924 51.6485C41.2897 51.5767 41.4717 51.468 41.6287 51.328C41.7869 51.1861 41.9143 51.013 42.0031 50.8195C42.1049 50.5847 42.1541 50.3304 42.1473 50.0744V46.4355C42.1521 46.183 42.103 45.9323 42.0031 45.7006C41.9148 45.5001 41.7875 45.3194 41.6287 45.1691ZM41.1657 50.0744C41.1741 50.1714 41.1607 50.269 41.1266 50.3601C41.0924 50.4512 41.0384 50.5334 40.9684 50.6008C40.8374 50.7106 40.6723 50.7708 40.5017 50.7708C40.3311 50.7708 40.1659 50.7106 40.0349 50.6008C39.965 50.5334 39.911 50.4512 39.8768 50.3601C39.8427 50.269 39.8293 50.1714 39.8376 50.0744V46.4355C39.8293 46.3385 39.8427 46.2409 39.8768 46.1498C39.911 46.0587 39.965 45.9764 40.0349 45.9091C40.1659 45.7993 40.3311 45.7391 40.5017 45.7391C40.6723 45.7391 40.8374 45.7993 40.9684 45.9091C41.0384 45.9764 41.0924 46.0587 41.1266 46.1498C41.1607 46.2409 41.1741 46.3385 41.1657 46.4355V50.0744Z" fill="#8E8F99"/>
<path d="M49.367 51.6994V44.8107H48.4133L47.1611 48.4572H47.1434L45.8811 44.8107H44.9375V51.6994H45.9216V47.5087H45.9393L46.9031 50.4712H47.3939L48.3653 47.5087H48.383V51.6994H49.367Z" fill="#8E8F99"/>
<path d="M54.9582 45.2937C54.8067 45.1237 54.6154 44.9943 54.4016 44.9173C54.1713 44.8424 53.9303 44.8063 53.6883 44.8105H52.2261V51.6993H53.2076V49.0089H53.7136C54.0198 49.0228 54.3245 48.958 54.599 48.8207C54.8221 48.6968 55.0082 48.515 55.1378 48.2943C55.2513 48.1111 55.3278 47.9071 55.3629 47.6942C55.4016 47.435 55.4193 47.173 55.4161 46.911C55.4256 46.5802 55.3933 46.2495 55.3199 45.9269C55.2545 45.6885 55.13 45.4706 54.9582 45.2937ZM54.4522 47.3941C54.448 47.5188 54.4169 47.6412 54.3612 47.7527C54.3051 47.8586 54.2163 47.9434 54.1082 47.9942C53.9628 48.0593 53.8042 48.0889 53.6453 48.0807H53.1975V45.7387H53.7034C53.8558 45.7312 54.0077 45.7609 54.1461 45.8251C54.2476 45.8834 54.3282 45.9724 54.3763 46.0794C54.43 46.2004 54.4592 46.331 54.4624 46.4634C54.4624 46.6084 54.4624 46.7609 54.4624 46.9211C54.4624 47.0813 54.4725 47.2466 54.4624 47.3941H54.4522Z" fill="#8E8F99"/>
<path d="M59.6074 44.8107H58.803L57.2852 51.6994H58.2667L58.5551 50.2194H59.8933L60.1817 51.6994H61.1632L59.6074 44.8107ZM58.7018 49.2811L59.185 46.784H59.2027L59.6833 49.2811H58.7018Z" fill="#8E8F99"/>
<path d="M65.9496 48.9607H65.9319L64.4494 44.8107H63.5059V51.6994H64.4874V47.557H64.5076L66.0078 51.6994H66.9311V44.8107H65.9496V48.9607Z" fill="#8E8F99"/>
<path d="M71.9476 44.8107L71.1583 47.5494H71.1381L70.3488 44.8107H69.3091L70.6574 48.7878V51.6994H71.639V48.7878L72.9873 44.8107H71.9476Z" fill="#8E8F99"/>
<path d="M33 53.6445H33.4731V54.9719H33.7943V53.6445H34.2649V53.3724H33V53.6445Z" fill="#8E8F99"/>
<path d="M36.9767 53.3724L36.3569 54.9719H36.6984L36.83 54.6083H37.4675L37.6041 54.9719H37.9532L37.3182 53.3724H36.9767ZM36.9261 54.3387L37.1437 53.7462L37.3612 54.3387H36.9261Z" fill="#8E8F99"/>
<path d="M40.9079 54.3821H41.2773V54.5881C41.1694 54.6746 41.0358 54.722 40.8978 54.7229C40.8333 54.7265 40.7689 54.7145 40.7099 54.688C40.6509 54.6614 40.5991 54.6211 40.5588 54.5703C40.474 54.4485 40.4322 54.3017 40.4399 54.1533C40.4399 53.7973 40.5942 53.6193 40.9003 53.6193C40.9809 53.6112 41.0617 53.6325 41.128 53.6791C41.1944 53.7257 41.2419 53.7947 41.2621 53.8735L41.5783 53.8125C41.51 53.4997 41.2849 53.3421 40.9003 53.3421C40.6947 53.3366 40.4947 53.4103 40.3413 53.5481C40.2607 53.6276 40.1983 53.7239 40.1586 53.8302C40.1188 53.9365 40.1026 54.0502 40.1111 54.1634C40.1017 54.3823 40.1749 54.5966 40.316 54.7636C40.3943 54.8444 40.4892 54.9071 40.594 54.9475C40.6988 54.9879 40.8111 55.0049 40.9231 54.9975C41.1734 55.0045 41.4165 54.9133 41.6011 54.7432V54.1126H40.9079V54.3821Z" fill="#8E8F99"/>
<path d="M44.9224 53.3724H44.5986V54.9719H45.7193V54.6998H44.9224V53.3724Z" fill="#8E8F99"/>
<path d="M48.3175 53.3724H47.9937V54.9719H48.3175V53.3724Z" fill="#8E8F99"/>
<path d="M51.6364 54.4405L50.9812 53.3724H50.6675V54.9719H50.9685V53.9268L51.6111 54.9719H51.9323V53.3724H51.6364V54.4405Z" fill="#8E8F99"/>
<path d="M54.6368 54.2675H55.4337V53.9954H54.6368V53.6445H55.4944V53.3724H54.313V54.9719H55.5273V54.6998H54.6368V54.2675Z" fill="#8E8F99"/>
<path d="M61.9121 54.0031H61.2822V53.3724H60.9609V54.9719H61.2822V54.2726H61.9121V54.9719H62.2334V53.3724H61.9121V54.0031Z" fill="#8E8F99"/>
<path d="M64.9302 54.2675H65.7296V53.9954H64.9302V53.6445H65.7903V53.3724H64.6089V54.9719H65.8206V54.6998H64.9302V54.2675Z" fill="#8E8F99"/>
<path d="M69.0235 54.2676C69.3018 54.2244 69.4434 54.0769 69.4434 53.8226C69.4515 53.7546 69.4412 53.6856 69.4136 53.623C69.386 53.5603 69.3421 53.5063 69.2866 53.4666C69.1417 53.3938 68.9801 53.3614 68.8186 53.3725H68.1406V54.972H68.4619V54.3032H68.5251C68.5936 54.299 68.6621 54.3112 68.725 54.3388C68.772 54.3678 68.8111 54.4079 68.8388 54.4558L69.1879 54.9644H69.5724L69.3777 54.6516C69.2916 54.4972 69.1702 54.3656 69.0235 54.2676ZM68.6997 54.0464H68.4619V53.6446H68.7149C68.8251 53.6357 68.936 53.6486 69.0412 53.6827C69.0646 53.7034 69.0831 53.7291 69.0952 53.7579C69.1074 53.7867 69.113 53.8179 69.1115 53.8492C69.11 53.8804 69.1016 53.911 69.0868 53.9385C69.072 53.966 69.0512 53.9899 69.026 54.0082C68.9204 54.0406 68.8099 54.0535 68.6997 54.0464Z" fill="#8E8F99"/>
<path d="M72.1094 54.2675H72.9063V53.9954H72.1094V53.6445H72.9696V53.3724H71.7856V54.9719H72.9999V54.6998H72.1094V54.2675Z" fill="#8E8F99"/>
</svg>
