<svg width="16" height="16" viewBox="0 0 16 16" fill="none" xmlns="http://www.w3.org/2000/svg">
<g clip-path="url(#clip0_309_391)">
<path d="M16 3.03891C15.405 3.29991 14.771 3.47291 14.11 3.55691C14.79 3.15091 15.309 2.51291 15.553 1.74391C14.919 2.12191 14.219 2.38891 13.473 2.53791C12.871 1.89691 12.013 1.49991 11.077 1.49991C9.261 1.49991 7.799 2.97391 7.799 4.78091C7.799 5.04091 7.821 5.29091 7.875 5.52891C5.148 5.39591 2.735 4.08891 1.114 2.09791C0.831 2.58891 0.665 3.15091 0.665 3.75591C0.665 4.89191 1.25 5.89891 2.122 6.48191C1.595 6.47191 1.078 6.31891 0.64 6.07791C0.64 6.08791 0.64 6.10091 0.64 6.11391C0.64 7.70791 1.777 9.03191 3.268 9.33691C3.001 9.40991 2.71 9.44491 2.408 9.44491C2.198 9.44491 1.986 9.43291 1.787 9.38891C2.212 10.6879 3.418 11.6429 4.852 11.6739C3.736 12.5469 2.319 13.0729 0.785 13.0729C0.516 13.0729 0.258 13.0609 0 13.0279C1.453 13.9649 3.175 14.4999 5.032 14.4999C11.068 14.4999 14.368 9.49991 14.368 5.16591C14.368 5.02091 14.363 4.88091 14.356 4.74191C15.007 4.27991 15.554 3.70291 16 3.03891Z" fill="#F4F4FD"/>
</g>
<defs>
<clipPath id="clip0_309_391">
<rect width="16" height="16" fill="white"/>
</clipPath>
</defs>
</svg>
